<?xml version="1.0" standalone="no"?>
<!DOCTYPE svg PUBLIC "-//W3C//DTD SVG 20010904//EN"
 "http://www.w3.org/TR/2001/REC-SVG-20010904/DTD/svg10.dtd">
<svg version="1.0" xmlns="http://www.w3.org/2000/svg"
 width="2668.000000pt" height="1470.000000pt" viewBox="0 0 2668.000000 1470.000000"
 preserveAspectRatio="xMidYMid meet">
<metadata>
Created by potrace 1.16, written by Peter Selinger 2001-2019
</metadata>
<g transform="translate(0.000000,1470.000000) scale(0.100000,-0.100000)"
fill="#000000" stroke="none">
<path d="M26615 9354 c-91 -38 -278 -99 -390 -128 -167 -42 -305 -63 -915
-136 -1187 -144 -1463 -199 -1775 -350 -304 -149 -502 -348 -1005 -1010 -365
-480 -514 -662 -702 -855 l-126 -130 -7 -95 c-30 -436 -217 -818 -524 -1074
-208 -173 -444 -285 -704 -333 -143 -27 -410 -24 -552 6 -253 53 -499 173
-678 331 -54 48 -113 162 -127 245 -5 28 -23 97 -40 155 -17 58 -38 144 -46
192 -9 48 -20 85 -25 82 -5 -3 -9 36 -9 86 0 103 2 101 -82 59 l-38 -19 0 81
c0 71 -2 80 -15 69 -13 -11 -15 12 -15 201 0 157 4 229 15 269 9 33 15 101 15
172 0 64 4 127 9 140 7 18 38 38 115 74 l106 49 0 75 c0 70 3 79 36 128 43 65
40 78 -4 20 l-32 -42 0 45 -1 44 -41 -45 c-58 -64 -153 -211 -199 -310 -80
-166 -121 -322 -139 -520 -5 -62 -11 -115 -14 -117 -2 -2 -127 42 -277 98
-724 269 -1023 364 -1365 433 -640 130 -1168 58 -1634 -224 -294 -178 -526
-265 -851 -321 -118 -20 -168 -23 -424 -24 -225 0 -320 4 -425 18 -682 91
-1412 356 -2310 838 -97 52 -192 95 -230 105 -118 30 -239 2 -371 -86 -95 -63
-300 -276 -514 -530 -453 -541 -761 -856 -1105 -1130 -706 -562 -1552 -925
-2550 -1094 -113 -19 -279 -42 -370 -51 -873 -84 -1710 -315 -2505 -689 l-119
-57 -67 31 c-98 45 -225 86 -347 111 -139 30 -389 32 -527 6 -270 -52 -529
-177 -718 -346 -353 -315 -536 -781 -488 -1244 l11 -109 -58 -63 c-31 -34
-106 -116 -166 -181 -566 -615 -1081 -1414 -1265 -1962 -24 -71 -31 -111 -31
-168 l0 -74 5441 0 5441 0 26 28 25 27 28 -27 27 -28 7846 0 7846 0 0 4690 c0
2580 -1 4690 -2 4690 -2 -1 -30 -12 -63 -26z m-9791 -3503 c33 -18 33 -26 -2
-40 -16 -7 -38 -28 -49 -48 l-20 -35 -19 31 c-10 18 -34 41 -53 52 l-34 20 35
24 c19 13 43 36 52 50 l18 27 23 -34 c12 -18 34 -40 49 -47z m-9054 -1401 c13
-26 34 -47 62 -61 l42 -21 -34 -18 c-39 -20 -61 -42 -82 -83 l-14 -28 -22 40
c-13 22 -41 51 -63 65 l-41 24 42 23 c26 15 50 39 61 61 11 21 21 38 24 38 3
0 14 -18 25 -40z m255 -1307 c8 -22 -1 -30 -362 -343 -146 -127 -270 -229
-276 -227 -7 2 -12 9 -12 15 0 17 615 572 634 572 5 0 12 -8 16 -17z m12783
-808 c-40 -38 -148 -135 -239 -215 -569 -498 -618 -536 -627 -489 -2 14 69 82
497 468 57 52 169 152 250 222 l146 128 23 -22 24 -22 -74 -70z m-12845 -1303
c152 -75 253 -215 278 -384 13 -91 -4 -198 -47 -286 -34 -70 -129 -171 -193
-205 l-50 -28 -138 79 c-76 44 -172 97 -213 119 -41 22 -124 68 -185 101 -60
34 -122 68 -137 76 -27 14 -28 19 -28 88 0 137 52 259 149 352 59 55 152 109
219 126 20 5 87 8 149 6 109 -2 114 -3 196 -44z"/>
</g>
</svg>
